:SAMPLES-PER-SECOND 30
:FULLY-SPECIFIED
:DEGREES
504
root  -5.37801 39.3253 0.918304 141.363 83.632 146.615
RightUpLeg  -14.8871 -11.7536 -5.74939
RightLeg  6.59184 -2.1942 1.39091
RightFoot  -3.47656 -0.556135 7.72596
RightToes  -1.33073e-015 0 -3.6325e-017
Spine  7.58187 -1.43456 -4.99554
Spine1  9.4172 -1.84017 -0.193347
HEad  3.15327 -5.86213 -0.245187
LeftShoulder1  -0.0479801 3.64255 -28.4463
LeftArm  -1.12723 -7.24175 -45.3432
LeftForeArm  15.2813 -22.5323 -4.16492
LeftHand  -0.102146 3.5529 5.56701
RightShoulder  -0.258923 -4.29837 25.2284
RightArm  14.2336 -4.21242 52.0977
RightForeArm  2.76422 14.4169 6.02453
RightHand  -0.886543 6.5362 -8.95566
LeftUpLeg  10.2625 7.53045 -3.09042
LeftLeg  9.40467 0.5632 -1.68557
LeftFoot  -12.9295 0.1133 2.55493
LeftToes  -1.93726e-010 2.42366e-011 2.16268e-013
505
root  -4.42202 39.18 0.805114 137.278 83.6376 142.234
RightUpLeg  -14.3977 -8.94231 -6.23125
RightLeg  -0.382377 -5.70757 2.00844
RightFoot  -3.53191 -0.560372 7.84538
RightToes  -1.33073e-015 0 -3.6325e-017
Spine  7.14655 -1.41552 -4.38787
Spine1  9.37034 -1.68417 -0.349012
HEad  2.8312 -5.88773 -0.730521
LeftShoulder1  -0.0435842 3.62895 -28.6713
LeftArm  -0.0487263 -8.31746 -45.314
LeftForeArm  15.4395 -22.7873 -4.174
LeftHand  -0.0917713 3.33287 4.33061
RightShoulder  -0.308304 -4.4432 25.64
RightArm  14.5161 -4.19906 51.6063
RightForeArm  3.22803 14.0586 6.16456
RightHand  -0.862251 6.61494 -8.60992
LeftUpLeg  12.0214 7.57584 -3.38661
LeftLeg  8.59648 0.759199 -1.76575
LeftFoot  -14.0749 0.141449 2.40205
LeftToes  -1.93726e-010 2.42366e-011 2.16268e-013
506
root  -3.39605 38.9744 0.738496 133.664 83.6552 138.59
RightUpLeg  -14.4684 -8.36712 -5.90996
RightLeg  -3.48302 -6.48616 1.62934
RightFoot  -3.47132 -0.585635 8.15377
RightToes  -1.33073e-015 0 -3.6325e-017
Spine  6.77228 -1.41158 -3.76012
Spine1  9.68011 -1.60279 -0.441711
HEad  2.05029 -5.78367 -0.914037
LeftShoulder1  -0.0593196 3.67344 -28.8325
LeftArm  0.975146 -8.72161 -45.4609
LeftForeArm  15.1845 -23.1074 -4.2022
LeftHand  -0.0801658 3.64875 4.27933
RightShoulder  -0.241165 -4.24225 25.2551
RightArm  14.4405 -4.41266 51.7512
RightForeArm  5.00107 13.964 6.11473
RightHand  -0.629407 5.18698 -7.21323
LeftUpLeg  13.8458 7.67905 -3.49334
LeftLeg  8.47975 0.888517 -1.73941
LeftFoot  -15.5453 0.164696 1.93833
LeftToes  -1.93726e-010 2.42366e-011 2.16268e-013
507
root  -2.33554 38.7314 0.697818 129.912 83.5965 134.977
RightUpLeg  -15.3601 -8.51871 -5.87513
RightLeg  -1.49964 -7.86658 1.67903
RightFoot  -2.69582 -0.597143 7.63406
RightToes  -1.33073e-015 0 -3.6325e-017
Spine  6.71942 -1.41784 -3.33885
Spine1  10.1331 -1.62216 -0.409014
HEad  0.933614 -5.58634 -0.900503
LeftShoulder1  -0.0580544 3.66899 -29.0068
LeftArm  2.74231 -8.90702 -45.5791
LeftForeArm  13.7803 -22.8228 -4.27225
LeftHand  -0.0882228 3.6918 4.99917
RightShoulder  -0.256841 -4.28861 25.3826
RightArm  14.4503 -4.09726 51.5182
RightForeArm  5.45085 13.61 6.22434
RightHand  -0.706655 5.75159 -7.66783
LeftUpLeg  15.6493 7.83252 -3.55043
LeftLeg  8.95538 0.778733 -1.65435
LeftFoot  -17.1151 0.172427 1.39393
LeftToes  -1.93726e-010 2.42366e-011 2.16268e-013
508
root  -1.20973 38.4853 0.70357 130.214 83.6121 135.52
RightUpLeg  -16.1483 -9.4257 -5.45394
RightLeg  2.99318 -9.79541 1.88777
RightFoot  -2.05006 -0.481246 5.69439
RightToes  -1.33073e-015 0 -3.6325e-017
Spine  7.21884 -1.6226 -2.63196
Spine1  9.95681 -1.88905 -0.255299
HEad  -0.352215 -4.90739 -1.16127
LeftShoulder1  -0.0664078 3.69317 -28.9259
LeftArm  4.24706 -7.87138 -45.7601
LeftForeArm  13.8866 -22.1745 -4.32332
LeftHand  -0.112119 2.86848 4.59135
RightShoulder  -0.237941 -4.22852 25.4052
RightArm  14.1621 -4.10613 51.3401
RightForeArm  5.91899 13.1312 6.30737
RightHand  -0.604278 5.60733 -6.69575
LeftUpLeg  17.3851 8.19121 -2.95682
LeftLeg  9.99081 -0.0216003 -1.44704
LeftFoot  -18.6921 0.132861 0.330941
LeftToes  -1.93726e-010 2.42366e-011 2.16268e-013
509
root  -0.0158424 38.3674 0.748806 136.075 83.9208 141.429
RightUpLeg  -16.8997 -10.7865 -3.99666
RightLeg  7.60899 -9.39971 1.30996
RightFoot  0.20049 -0.106951 1.41462
RightToes  -1.33073e-015 0 -3.6325e-017
Spine  7.23075 -1.88791 -1.31336
Spine1  10.3184 -2.31962 0.495294
HEad  -1.75818 -4.81593 -1.26997
LeftShoulder1  -0.0572929 3.66634 -29.1291
LeftArm  6.26813 -6.71958 -45.6272
LeftForeArm  13.3848 -21.1288 -4.6118
LeftHand  -0.0875587 3.49151 4.36417
RightShoulder  -0.261695 -4.29713 25.6108
RightArm  14.2469 -4.11386 50.7227
RightForeArm  5.29486 12.8513 6.42609
RightHand  -0.632398 5.14943 -7.25827
LeftUpLeg  19.1342 8.73707 -1.4399
LeftLeg  10.6523 -1.4871 -1.24061
LeftFoot  -19.2709 0.020968 -1.3907
LeftToes  -1.93726e-010 2.42366e-011 2.16268e-013
510
root  1.27544 38.3282 0.798599 142.592 84.9492 147.828
RightUpLeg  -17.9839 -11.7182 -1.80569
RightLeg  11.607 -7.1865 0.565004
RightFoot  3.99859 0.585349 -4.28355
RightToes  -1.33073e-015 0 -3.6325e-017
Spine  7.21234 -1.97388 1.0662
Spine1  10.3404 -2.39348 0.968828
HEad  -2.57461 -4.59364 -1.44325
LeftShoulder1  -0.0737836 3.70861 -29.8571
LeftArm  7.22573 -4.75845 -45.1156
LeftForeArm  15.1567 -19.6208 -5.19603
LeftHand  -0.0660286 3.72655 3.43165
RightShoulder  -0.34237 -4.53673 26.0634
RightArm  13.5433 -4.49257 49.8585
RightForeArm  5.42476 12.3642 6.39736
RightHand  -0.715836 6.27317 -7.44373
LeftUpLeg  20.8433 9.05809 0.392442
LeftLeg  11.2088 -2.66264 -0.94504
LeftFoot  -18.9544 -0.128988 -3.61705
LeftToes  -1.93726e-010 2.42366e-011 2.16268e-013
511
root  2.66106 38.2032 0.883015 148.931 86.6031 153.897
RightUpLeg  -19.1186 -13.1188 0.811696
RightLeg  16.4903 -3.7995 -0.692686
RightFoot  3.64486 0.629111 -4.60344
RightToes  -1.33073e-015 0 -3.6325e-017
Spine  7.08919 -2.01743 3.783
Spine1  9.89644 -2.09854 0.547942
HEad  -3.40606 -3.77317 -2.14504
LeftShoulder1  -0.128389 3.85694 -30.242
LeftArm  6.71659 -2.21692 -44.7399
LeftForeArm  17.6753 -17.2916 -6.35792
LeftHand  -0.0616403 3.74269 3.10896
RightShoulder  -0.307445 -4.43256 25.9111
RightArm  12.2609 -4.97893 49.671
RightForeArm  5.80498 11.1402 6.43699
RightHand  -0.719511 5.81713 -7.75977
LeftUpLeg  21.1797 9.89146 2.62297
LeftLeg  14.6873 -4.03417 -1.07873
LeftFoot  -18.7874 -0.339262 -6.91974
LeftToes  -1.93726e-010 2.42366e-011 2.16268e-013
512
root  4.02242 38.0946 0.969948 168.775 88.6758 173.589
RightUpLeg  -19.4131 -13.0439 2.89534
RightLeg  20.5532 -2.05753 -1.10396
RightFoot  1.39388 0.64272 -5.66573
RightToes  -1.33073e-015 0 -3.6325e-017
Spine  7.39606 -2.07078 7.10386
Spine1  9.40992 -1.47248 -0.581203
HEad  -4.25123 -2.78535 -2.54225
LeftShoulder1  -0.131986 3.86583 -30.3244
LeftArm  3.60236 1.04609 -44.4463
LeftForeArm  22.3238 -14.4463 -7.54722
LeftHand  -0.0374207 4.75977 2.66936
RightShoulder  -0.3371 -4.50919 26.4193
RightArm  11.6542 -4.68794 49.0891
RightForeArm  7.49851 9.69316 6.52767
RightHand  -0.633266 5.36877 -7.12026
LeftUpLeg  20.3143 10.5323 4.84477
LeftLeg  20.6006 -5.26083 -1.85686
LeftFoot  -17.2462 -0.483089 -11.4988
LeftToes  -1.93726e-010 2.42366e-011 2.16268e-013
513
root  5.27707 38.0068 1.1326 -134.155 89.1461 -129.542
RightUpLeg  -19.0558 -13.0263 4.06587
RightLeg  23.5172 -1.68153 -1.03603
RightFoot  -1.35133 0.536734 -6.22876
RightToes  -1.33073e-015 0 -3.6325e-017
Spine  7.84157 -2.27744 8.79728
Spine1  9.11472 -1.40542 0.145096
HEad  -4.81221 -1.80762 -3.00907
LeftShoulder1  -0.110021 3.80617 -30.2663
LeftArm  -0.865077 4.07363 -44.3371
LeftForeArm  27.6916 -10.8386 -8.43263
LeftHand  -0.033952 4.56852 1.4434
RightShoulder  -0.289949 -4.37617 25.9951
RightArm  10.0573 -4.79547 49.3894
RightForeArm  10.1765 8.7324 6.09994
RightHand  -0.458551 4.27452 -5.79794
LeftUpLeg  16.8984 9.45939 6.36059
LeftLeg  29.6178 -5.48378 -2.98194
LeftFoot  -12.5696 -0.0767764 -16.2721
LeftToes  -1.93726e-010 2.42366e-011 2.16268e-013
514
root  6.47244 37.9705 1.29973 -103.927 88.0349 -99.9313
RightUpLeg  -18.5499 -13.3244 5.39987
RightLeg  25.2472 -1.4926 -1.00555
RightFoot  -3.72739 0.406806 -6.47425
RightToes  -1.33073e-015 0 -3.6325e-017
Spine  7.7227 -2.4787 10.709
Spine1  8.84981 -1.35988 0.487358
HEad  -5.32134 -1.60632 -3.11453
LeftShoulder1  -0.0907765 3.75093 -30.5649
LeftArm  -3.67988 5.73907 -44.1025
LeftForeArm  31.5575 -7.01617 -8.83761
LeftHand  -0.0280102 4.8839 0.454445
RightShoulder  -0.279437 -4.35092 25.7084
RightArm  9.65536 -4.54651 49.5038
RightForeArm  9.44047 7.95008 6.03258
RightHand  -0.378803 2.4822 -5.7787
LeftUpLeg  10.444 6.57402 6.91811
LeftLeg  40.9834 -3.64143 -2.98677
LeftFoot  -2.22609 1.29204 -16.8747
LeftToes  -1.93726e-010 2.42366e-011 2.16268e-013
